<svg width="364" height="150" viewBox="0 0 364 150" fill="none" xmlns="http://www.w3.org/2000/svg">
<path d="M129.475 100V92.35L157.75 56.275V59.5L129.475 59.425V51.325H166.3V58.9L139.75 92.95L139.525 91.825L166.3 91.9V100H129.475ZM178.143 51.325H186.993V71.65H208.218V51.325H217.068V100H208.218V79.375H186.993V100H178.143V51.325ZM249.624 101.05C245.299 101.05 241.474 100.1 238.149 98.2C234.849 96.3 232.261 93.4625 230.386 89.6875C228.511 85.9125 227.574 81.225 227.574 75.625C227.574 69.925 228.511 65.2125 230.386 61.4875C232.261 57.7375 234.849 54.95 238.149 53.125C241.474 51.275 245.299 50.35 249.624 50.35C253.974 50.35 257.811 51.3 261.136 53.2C264.461 55.075 267.061 57.8875 268.936 61.6375C270.811 65.3875 271.749 70.05 271.749 75.625C271.749 81.3 270.811 86.025 268.936 89.8C267.061 93.575 264.461 96.4 261.136 98.275C257.811 100.125 253.974 101.05 249.624 101.05ZM249.624 93.025C253.599 93.025 256.749 91.525 259.074 88.525C261.424 85.525 262.599 81.2 262.599 75.55C262.599 70.1 261.424 65.8625 259.074 62.8375C256.749 59.8125 253.599 58.3 249.624 58.3C245.724 58.3 242.599 59.825 240.249 62.875C237.899 65.9 236.724 70.15 236.724 75.625C236.724 81.25 237.899 85.5625 240.249 88.5625C242.599 91.5375 245.724 93.025 249.624 93.025ZM282.22 100V51.325H300.22C306.045 51.325 310.508 52.6875 313.608 55.4125C316.733 58.1375 318.295 61.75 318.295 66.25C318.295 70.675 316.733 74.25 313.608 76.975C310.508 79.675 306.045 81.025 300.22 81.025H291.07V100H282.22ZM308.545 100L295.645 77.2H305.095L320.095 100H308.545ZM291.07 75.1H299.32C302.57 75.1 305.033 74.3625 306.708 72.8875C308.383 71.3875 309.22 69.45 309.22 67.075C309.22 64.65 308.458 62.7 306.933 61.225C305.408 59.725 303.17 58.975 300.22 58.975H291.07V75.1ZM323.962 58.975V51.325H362.962V58.975H345.899L347.887 56.95V100H339.037V56.95L341.024 58.975H323.962Z" fill="white"/>
<path d="M9.344 118V104.944L57.6 43.376V48.88L9.344 48.752V34.928H72.192V47.856L26.88 105.968L26.496 104.048L72.192 104.176V118H9.344ZM31.988 47.984V34.928H98.548V47.984H69.428L72.82 44.528V118H57.716V44.528L61.108 47.984H31.988Z" fill="#C257E1"/>
</svg>
